<?xml version="1.0" standalone="no"?>
<!DOCTYPE svg PUBLIC "-//W3C//DTD SVG 20010904//EN"
 "http://www.w3.org/TR/2001/REC-SVG-20010904/DTD/svg10.dtd">
<svg version="1.0" xmlns="http://www.w3.org/2000/svg"
 width="66.000000pt" height="54.000000pt" viewBox="0 0 66.000000 54.000000"
 preserveAspectRatio="xMidYMid meet">

<g transform="translate(0.000000,54.000000) scale(0.100000,-0.100000)"
fill="#007AC3" stroke="none">
<path d="M373 530 c-26 -10 -233 -316 -233 -343 0 -34 20 -57 88 -100 l67 -42
-145 -5 c-120 -4 -145 -8 -145 -20 0 -13 34 -15 245 -15 225 0 245 1 248 18 2
11 -3 17 -13 17 -24 0 -18 12 82 157 94 138 106 176 68 212 -31 29 -207 131
-224 130 -9 0 -26 -4 -38 -9z m134 -85 c51 -31 97 -64 103 -75 8 -15 -1 -35
-47 -104 -31 -47 -60 -86 -63 -86 -7 0 -210 126 -221 137 -13 13 102 183 124
183 6 0 53 -25 104 -55z m-134 -237 c53 -33 97 -64 97 -69 0 -19 -52 -87 -71
-92 -18 -5 -159 73 -201 110 -25 22 -23 33 13 82 36 50 29 51 162 -31z"/>
</g>
</svg>
