<?xml version="1.0" standalone="no"?>
<!DOCTYPE svg PUBLIC "-//W3C//DTD SVG 20010904//EN"
 "http://www.w3.org/TR/2001/REC-SVG-20010904/DTD/svg10.dtd">
<svg version="1.0" xmlns="http://www.w3.org/2000/svg"
 width="48.000000pt" height="48.000000pt" viewBox="0 0 48.000000 48.000000"
 preserveAspectRatio="xMidYMid meet">

<g transform="translate(0.000000,48.000000) scale(0.100000,-0.100000)"
fill="#655da7" stroke="none">
<path d="M306 458 c-13 -13 -65 -87 -114 -165 -76 -120 -91 -150 -97 -197 -4
-33 -3 -56 2 -56 9 0 96 60 101 70 1 3 45 72 97 154 52 83 95 158 95 167 0 16
-35 49 -52 49 -4 0 -18 -10 -32 -22z m54 -23 c0 -13 -4 -14 -20 -5 -11 6 -20
13 -20 15 0 3 9 5 20 5 11 0 20 -7 20 -15z m-31 -34 c16 -10 20 -1 -76 -153
-66 -105 -77 -117 -94 -108 -10 6 -19 13 -19 17 0 13 156 252 165 252 6 1 16
-3 24 -8z m-181 -293 c-6 -18 -28 -21 -28 -4 0 9 7 16 16 16 9 0 14 -5 12 -12z"/>
<path d="M5 20 c-3 -6 0 -12 7 -15 26 -10 458 0 458 10 0 14 -456 19 -465 5z"/>
</g>
</svg>
