<?xml version="1.0" standalone="no"?>
<!DOCTYPE svg PUBLIC "-//W3C//DTD SVG 20010904//EN"
 "http://www.w3.org/TR/2001/REC-SVG-20010904/DTD/svg10.dtd">
<svg version="1.0" xmlns="http://www.w3.org/2000/svg"
 width="42.000000pt" height="45.000000pt" viewBox="0 0 42.000000 45.000000"
 preserveAspectRatio="xMidYMid meet">

<g transform="translate(0.000000,45.000000) scale(0.100000,-0.100000)"
fill="#007AC3" stroke="none">
<path d="M5 437 c-3 -7 -4 -107 -3 -222 l3 -210 205 0 205 0 0 220 0 220 -203
3 c-159 2 -204 0 -207 -11z m385 -212 l0 -195 -180 0 -180 0 0 195 0 195 180
0 180 0 0 -195z"/>
<path d="M79 334 c-17 -21 0 -49 31 -49 31 0 48 28 31 49 -8 9 -21 16 -31 16
-10 0 -23 -7 -31 -16z m41 -19 c0 -8 -4 -15 -10 -15 -5 0 -10 7 -10 15 0 8 5
15 10 15 6 0 10 -7 10 -15z"/>
<path d="M165 320 c-3 -5 0 -13 8 -16 24 -9 172 0 170 11 -4 14 -170 19 -178
5z"/>
<path d="M76 234 c-10 -25 -7 -33 13 -44 34 -18 68 10 55 45 -8 20 -60 19 -68
-1z m44 -14 c0 -5 -4 -10 -10 -10 -5 0 -10 5 -10 10 0 6 5 10 10 10 6 0 10 -4
10 -10z"/>
<path d="M160 220 c0 -6 38 -10 95 -10 57 0 95 4 95 10 0 6 -38 10 -95 10 -57
0 -95 -4 -95 -10z"/>
<path d="M81 146 c-19 -22 -4 -56 23 -56 32 0 53 26 39 48 -14 23 -47 27 -62
8z m39 -26 c0 -5 -4 -10 -10 -10 -5 0 -10 5 -10 10 0 6 5 10 10 10 6 0 10 -4
10 -10z"/>
<path d="M165 120 c3 -5 46 -10 96 -10 53 0 89 4 89 10 0 6 -39 10 -96 10 -61
0 -93 -4 -89 -10z"/>
</g>
</svg>
