<?xml version="1.0" standalone="no"?>
<!DOCTYPE svg PUBLIC "-//W3C//DTD SVG 20010904//EN"
 "http://www.w3.org/TR/2001/REC-SVG-20010904/DTD/svg10.dtd">
<svg version="1.0" xmlns="http://www.w3.org/2000/svg"
 width="45.000000pt" height="42.000000pt" viewBox="0 0 45.000000 42.000000"
 preserveAspectRatio="xMidYMid meet">

<g transform="translate(0.000000,42.000000) scale(0.100000,-0.100000)"
fill="#655da7" stroke="none">
<path d="M162 409 c-30 -7 -59 -25 -92 -57 -78 -76 -89 -166 -31 -252 108
-161 370 -108 406 81 14 76 -41 176 -118 212 -44 21 -114 28 -165 16z m160
-40 l41 -21 -34 -33 c-94 -92 -242 -225 -250 -225 -16 0 -49 79 -49 120 0 44
26 105 56 131 61 53 163 65 236 28z m81 -84 c31 -66 13 -160 -39 -206 -58 -51
-161 -65 -230 -32 l-36 18 134 127 c73 70 138 127 144 128 6 0 18 -16 27 -35z"/>
</g>
</svg>
