<?xml version="1.0" encoding="utf-8"?>
<!-- Generator: Adobe Illustrator 14.0.0, SVG Export Plug-In . SVG Version: 6.00 Build 43363)  -->
<!DOCTYPE svg PUBLIC "-//W3C//DTD SVG 1.1//EN" "http://www.w3.org/Graphics/SVG/1.1/DTD/svg11.dtd">
<svg version="1.1" id="레이어_1" xmlns="http://www.w3.org/2000/svg" xmlns:xlink="http://www.w3.org/1999/xlink" x="0px"
	 y="0px" width="41.667px" height="41.667px" viewBox="92.667 4.167 41.667 41.667"
	 enable-background="new 92.667 4.167 41.667 41.667" xml:space="preserve">
<path fill="#C4C5CA" d="M132.25,29.166c-1.15,0-2.084,0.934-2.084,2.084v8.334c0,1.15-0.932,2.082-2.082,2.082H98.917
	c-1.15,0-2.083-0.932-2.083-2.082V31.25c0-1.15-0.933-2.084-2.083-2.084s-2.083,0.934-2.083,2.084v8.334
	c0,3.451,2.798,6.25,6.25,6.25h29.167c3.451,0,6.25-2.799,6.25-6.25V31.25C134.334,30.1,133.4,29.166,132.25,29.166z
	 M112.021,32.729c0.198,0.19,0.432,0.339,0.688,0.438c0.504,0.224,1.079,0.224,1.583,0c0.256-0.099,0.49-0.247,0.688-0.438
	l8.334-8.333c0.816-0.817,0.816-2.142,0-2.958s-2.142-0.817-2.959,0l-4.77,4.791V6.25c0-1.15-0.934-2.083-2.084-2.083
	s-2.083,0.933-2.083,2.083v19.979l-4.771-4.791c-0.817-0.817-2.142-0.817-2.958,0s-0.817,2.142,0,2.958L112.021,32.729z"/>
</svg>
