<?xml version="1.0" standalone="no"?>
<!DOCTYPE svg PUBLIC "-//W3C//DTD SVG 20010904//EN"
 "http://www.w3.org/TR/2001/REC-SVG-20010904/DTD/svg10.dtd">
<svg version="1.0" xmlns="http://www.w3.org/2000/svg"
 width="59.000000pt" height="45.000000pt" viewBox="0 0 59.000000 45.000000"
 preserveAspectRatio="xMidYMid meet">

<g transform="translate(0.000000,45.000000) scale(0.100000,-0.100000)"
fill="#655da7" stroke="none">
<path d="M10 225 l0 -225 285 0 285 0 0 195 0 195 -144 0 -145 0 -21 30 -21
30 -120 0 -119 0 0 -225z m253 165 l27 -30 130 0 130 0 0 -165 0 -165 -255 0
-255 0 0 195 0 195 98 0 c97 0 99 -1 125 -30z"/>
</g>
</svg>
