<?xml version="1.0" standalone="no"?>
<!DOCTYPE svg PUBLIC "-//W3C//DTD SVG 20010904//EN"
 "http://www.w3.org/TR/2001/REC-SVG-20010904/DTD/svg10.dtd">
<svg version="1.0" xmlns="http://www.w3.org/2000/svg"
 width="57.000000pt" height="57.000000pt" viewBox="0 0 57.000000 57.000000"
 preserveAspectRatio="xMidYMid meet">

<g transform="translate(0.000000,57.000000) scale(0.100000,-0.100000)"
fill="#655da7" stroke="none">
<path d="M42 560 c-38 -16 -43 -51 -40 -292 3 -202 5 -229 21 -245 16 -16 41
-18 262 -18 221 0 246 2 262 18 16 16 18 41 18 262 0 221 -2 246 -18 262 -16
16 -42 18 -250 20 -128 1 -242 -2 -255 -7z m463 -36 c16 -6 -18 -34 -171 -140
l-51 -36 -117 83 c-80 56 -113 85 -104 91 15 9 419 11 443 2z m-338 -145 l114
-80 27 17 c15 9 65 44 111 76 46 33 90 62 97 65 22 8 20 -379 -2 -401 -23 -24
-435 -24 -458 0 -13 13 -16 46 -16 210 0 107 3 194 6 194 3 0 58 -36 121 -81z"/>
</g>
</svg>
