<?xml version="1.0" standalone="no"?>
<!DOCTYPE svg PUBLIC "-//W3C//DTD SVG 20010904//EN"
 "http://www.w3.org/TR/2001/REC-SVG-20010904/DTD/svg10.dtd">
<svg version="1.0" xmlns="http://www.w3.org/2000/svg"
 width="57.000000pt" height="57.000000pt" viewBox="0 0 57.000000 57.000000"
 preserveAspectRatio="xMidYMid meet">

<g transform="translate(0.000000,57.000000) scale(0.100000,-0.100000)"
fill="#655da7" stroke="none">
<path d="M5 558 c-3 -8 -4 -135 -3 -283 l3 -270 110 0 c96 0 110 2 113 17 3
15 -8 18 -90 20 l-93 3 0 240 0 240 188 3 187 2 0 -60 c0 -54 2 -60 20 -60 19
0 21 5 18 78 l-3 77 -223 3 c-174 2 -224 0 -227 -10z"/>
<path d="M317 353 c-13 -21 -40 -68 -60 -104 l-37 -66 36 -77 c31 -68 38 -77
57 -72 12 2 45 8 74 12 61 8 63 10 132 128 42 73 49 92 39 102 -21 20 -188
114 -204 114 -7 0 -24 -17 -37 -37z m129 -55 l73 -41 -27 -46 c-61 -108 -70
-118 -102 -125 -65 -12 -75 -9 -98 39 -12 25 -22 50 -22 56 0 16 84 159 94
159 4 0 41 -19 82 -42z"/>
</g>
</svg>
