<?xml version="1.0" standalone="no"?>
<!DOCTYPE svg PUBLIC "-//W3C//DTD SVG 20010904//EN"
 "http://www.w3.org/TR/2001/REC-SVG-20010904/DTD/svg10.dtd">
<svg version="1.0" xmlns="http://www.w3.org/2000/svg"
 width="51.000000pt" height="57.000000pt" viewBox="0 0 51.000000 57.000000"
 preserveAspectRatio="xMidYMid meet">

<g transform="translate(0.000000,57.000000) scale(0.100000,-0.100000)"
fill="#655da7" stroke="none">
<path d="M5 558 c-3 -8 -4 -135 -3 -283 l3 -270 250 0 250 0 0 280 0 280 -248
3 c-194 2 -249 0 -252 -10z m460 -273 l0 -240 -210 0 -210 0 -3 230 c-1 126 0
235 3 242 3 11 50 13 212 11 l208 -3 0 -240z"/>
<path d="M142 403 c3 -16 16 -18 113 -18 97 0 110 2 113 18 3 15 -7 17 -113
17 -106 0 -116 -2 -113 -17z"/>
<path d="M142 283 c3 -16 16 -18 113 -18 97 0 110 2 113 18 3 15 -7 17 -113
17 -106 0 -116 -2 -113 -17z"/>
<path d="M147 184 c-4 -4 -7 -13 -7 -21 0 -10 21 -13 86 -13 76 0 85 2 82 18
-3 14 -16 17 -79 20 -41 1 -78 0 -82 -4z"/>
</g>
</svg>
