<?xml version="1.0" standalone="no"?>
<!DOCTYPE svg PUBLIC "-//W3C//DTD SVG 20010904//EN"
 "http://www.w3.org/TR/2001/REC-SVG-20010904/DTD/svg10.dtd">
<svg version="1.0" xmlns="http://www.w3.org/2000/svg"
 width="51.000000pt" height="63.000000pt" viewBox="0 0 51.000000 63.000000"
 preserveAspectRatio="xMidYMid meet">

<g transform="translate(0.000000,63.000000) scale(0.100000,-0.100000)"
fill="#655da7" stroke="none">
<path d="M210 619 c-40 -16 -69 -50 -81 -92 -13 -49 -4 -89 28 -127 32 -39 29
-89 -7 -107 -14 -6 -43 -20 -65 -31 -22 -10 -48 -33 -58 -51 -26 -44 -28 -123
-3 -150 66 -73 396 -73 462 0 25 27 23 106 -3 150 -10 18 -36 41 -58 51 -22
11 -51 25 -65 31 -34 17 -40 70 -10 101 63 68 38 187 -46 222 -38 16 -59 17
-94 3z m111 -58 c61 -61 18 -181 -66 -181 -28 0 -67 25 -81 51 -38 74 5 159
81 159 27 0 44 -8 66 -29z m-26 -238 c10 -41 31 -60 85 -78 66 -22 84 -45 85
-108 0 -51 -1 -52 -40 -72 -34 -17 -60 -20 -170 -20 -110 0 -136 3 -170 20
-39 20 -40 21 -40 72 1 63 19 86 85 108 54 18 75 37 85 78 6 23 13 27 40 27
27 0 34 -4 40 -27z"/>
<path d="M243 252 c-5 -4 -9 -27 -9 -52 1 -25 -3 -58 -7 -75 -9 -38 18 -61 47
-40 15 12 16 18 6 56 -6 23 -9 57 -6 74 7 33 -9 51 -31 37z"/>
</g>
</svg>
