<?xml version="1.0" standalone="no"?>
<!DOCTYPE svg PUBLIC "-//W3C//DTD SVG 20010904//EN"
 "http://www.w3.org/TR/2001/REC-SVG-20010904/DTD/svg10.dtd">
<svg version="1.0" xmlns="http://www.w3.org/2000/svg"
 width="60.000000pt" height="54.000000pt" viewBox="0 0 60.000000 54.000000"
 preserveAspectRatio="xMidYMid meet">

<g transform="translate(0.000000,54.000000) scale(0.100000,-0.100000)"
fill="#007AC3" stroke="none">
<path d="M156 533 c-3 -3 -6 -17 -6 -29 0 -22 -4 -23 -72 -26 l-73 -3 0 -235
0 -235 295 0 295 0 0 235 0 235 -72 3 c-70 3 -72 4 -75 30 -4 35 -22 35 -26 0
l-3 -28 -120 0 -119 0 0 24 c0 26 -12 40 -24 29z m414 -128 l0 -45 -270 0
-270 0 0 45 0 45 270 0 270 0 0 -45z m0 -225 l0 -150 -270 0 -270 0 0 150 0
150 270 0 270 0 0 -150z"/>
</g>
</svg>
