<?xml version="1.0" standalone="no"?>
<!DOCTYPE svg PUBLIC "-//W3C//DTD SVG 20010904//EN"
 "http://www.w3.org/TR/2001/REC-SVG-20010904/DTD/svg10.dtd">
<svg version="1.0" xmlns="http://www.w3.org/2000/svg"
 width="51.000000pt" height="60.000000pt" viewBox="0 0 51.000000 60.000000"
 preserveAspectRatio="xMidYMid meet">

<g transform="translate(0.000000,60.000000) scale(0.100000,-0.100000)"
fill="#655da7" stroke="none">
<path d="M201 583 c-80 -42 -102 -136 -48 -206 46 -60 33 -89 -55 -117 -50
-15 -84 -58 -93 -116 -9 -62 13 -92 86 -118 76 -26 252 -26 328 0 73 26 95 56
86 118 -9 58 -43 101 -93 116 -87 28 -101 57 -56 115 34 45 40 100 17 144 -36
69 -110 97 -172 64z m98 -38 c84 -43 50 -175 -44 -175 -93 0 -127 131 -46 175
34 18 55 18 90 0z m-9 -234 c0 -31 37 -68 75 -75 49 -10 91 -48 98 -91 8 -51
1 -62 -51 -82 -66 -25 -248 -25 -314 0 -52 20 -59 31 -51 82 7 43 49 81 98 91
38 7 75 44 75 75 0 15 8 19 35 19 27 0 35 -4 35 -19z"/>
<path d="M244 239 c-4 -7 -8 -35 -9 -63 -1 -28 -6 -59 -9 -68 -10 -23 25 -42
48 -25 13 10 14 18 5 51 -6 22 -8 52 -5 67 6 31 -16 59 -30 38z"/>
</g>
</svg>
