<?xml version="1.0" standalone="no"?>
<!DOCTYPE svg PUBLIC "-//W3C//DTD SVG 20010904//EN"
 "http://www.w3.org/TR/2001/REC-SVG-20010904/DTD/svg10.dtd">
<svg version="1.0" xmlns="http://www.w3.org/2000/svg"
 width="39.000000pt" height="45.000000pt" viewBox="0 0 39.000000 45.000000"
 preserveAspectRatio="xMidYMid meet">

<g transform="translate(0.000000,45.000000) scale(0.100000,-0.100000)"
fill="#655da7" stroke="none">
<path d="M5 437 c-3 -7 -4 -107 -3 -222 l3 -210 114 -3 114 -3 79 79 79 79 -3
144 -3 144 -188 3 c-146 2 -189 0 -192 -11z m355 -137 l0 -119 -72 -3 -73 -3
-3 -72 -3 -73 -89 0 -90 0 0 195 0 195 165 0 165 0 0 -120z m-20 -153 c0 -1
-22 -25 -50 -52 l-50 -49 0 52 0 52 50 0 c28 0 50 -1 50 -3z"/>
</g>
</svg>
