<?xml version="1.0" standalone="no"?>
<!DOCTYPE svg PUBLIC "-//W3C//DTD SVG 20010904//EN"
 "http://www.w3.org/TR/2001/REC-SVG-20010904/DTD/svg10.dtd">
<svg version="1.0" xmlns="http://www.w3.org/2000/svg"
 width="63.000000pt" height="42.000000pt" viewBox="0 0 63.000000 42.000000"
 preserveAspectRatio="xMidYMid meet">

<g transform="translate(0.000000,42.000000) scale(0.100000,-0.100000)"
fill="#655da7" stroke="none">
<path d="M5 407 c-3 -7 -4 -100 -3 -207 l3 -195 310 0 310 0 0 205 0 205 -308
3 c-244 2 -309 0 -312 -11z m535 -31 c0 -2 -49 -41 -109 -85 l-109 -82 -111
78 c-60 43 -110 81 -111 86 0 4 99 7 220 7 121 0 220 -2 220 -4z m-385 -93
c52 -38 94 -70 94 -73 0 -8 -188 -140 -199 -140 -6 0 -10 55 -10 140 0 85 4
140 10 140 5 0 52 -30 105 -67z m435 -74 c0 -122 -2 -140 -15 -135 -22 8 -175
128 -175 136 0 9 170 140 181 140 5 0 9 -63 9 -141z m-135 -98 c47 -34 85 -65
85 -67 0 -2 -99 -4 -220 -4 -121 0 -220 3 -220 8 1 4 40 34 87 68 78 55 92 61
135 60 42 -1 57 -9 133 -65z"/>
</g>
</svg>
