<?xml version="1.0" standalone="no"?>
<!DOCTYPE svg PUBLIC "-//W3C//DTD SVG 20010904//EN"
 "http://www.w3.org/TR/2001/REC-SVG-20010904/DTD/svg10.dtd">
<svg version="1.0" xmlns="http://www.w3.org/2000/svg"
 width="51.000000pt" height="49.000000pt" viewBox="0 0 51.000000 49.000000"
 preserveAspectRatio="xMidYMid meet">

<g transform="translate(0.000000,49.000000) scale(0.100000,-0.100000)"
fill="#655da7" stroke="none">
<path d="M80 245 c0 -193 2 -225 15 -225 12 0 15 17 15 90 l0 90 113 0 113 0
64 65 64 64 -61 68 -60 68 -132 3 -131 3 0 -226z m304 139 l49 -55 -49 -50
-48 -49 -113 0 -113 0 0 105 0 105 113 -1 112 0 49 -55z"/>
</g>
</svg>
