<?xml version="1.0" standalone="no"?>
<!DOCTYPE svg PUBLIC "-//W3C//DTD SVG 20010904//EN"
 "http://www.w3.org/TR/2001/REC-SVG-20010904/DTD/svg10.dtd">
<svg version="1.0" xmlns="http://www.w3.org/2000/svg"
 width="48.000000pt" height="48.000000pt" viewBox="0 0 48.000000 48.000000"
 preserveAspectRatio="xMidYMid meet">

<g transform="translate(0.000000,48.000000) scale(0.100000,-0.100000)"
fill="#655da7" stroke="none">
<path d="M167 464 c-110 -35 -183 -159 -158 -270 42 -187 262 -253 396 -119
60 59 83 135 65 212 -30 137 -171 219 -303 177z m187 -44 c20 -14 49 -43 64
-64 24 -35 27 -49 27 -116 0 -67 -3 -81 -27 -116 -15 -21 -44 -50 -65 -64 -31
-21 -48 -25 -113 -25 -65 0 -82 4 -113 25 -81 55 -118 161 -88 253 14 41 72
104 115 123 50 23 155 14 200 -16z"/>
<path d="M210 300 l0 -90 90 0 c73 0 90 3 90 15 0 12 -15 15 -75 15 l-75 0 0
75 c0 60 -3 75 -15 75 -12 0 -15 -17 -15 -90z"/>
</g>
</svg>
