<?xml version="1.0" standalone="no"?>
<!DOCTYPE svg PUBLIC "-//W3C//DTD SVG 20010904//EN"
 "http://www.w3.org/TR/2001/REC-SVG-20010904/DTD/svg10.dtd">
<svg version="1.0" xmlns="http://www.w3.org/2000/svg"
 width="42.000000pt" height="45.000000pt" viewBox="0 0 42.000000 45.000000"
 preserveAspectRatio="xMidYMid meet">

<g transform="translate(0.000000,45.000000) scale(0.100000,-0.100000)"
fill="#007AC3" stroke="none">
<path d="M127 444 c-4 -4 -7 -24 -7 -45 l0 -38 -55 -3 c-30 -2 -55 -7 -55 -13
0 -14 400 -14 400 0 0 6 -24 11 -54 13 l-55 3 -3 42 -3 42 -80 3 c-45 1 -84 0
-88 -4z m143 -54 l0 -30 -60 0 -60 0 0 30 0 30 60 0 60 0 0 -30z"/>
<path d="M35 288 c-3 -8 -4 -75 -3 -149 l3 -134 175 0 175 0 0 143 c0 186 -19
198 -23 15 l-3 -133 -149 0 -150 0 0 129 c0 77 -4 132 -10 136 -6 3 -12 0 -15
-7z"/>
</g>
</svg>
