<?xml version="1.0" standalone="no"?>
<!DOCTYPE svg PUBLIC "-//W3C//DTD SVG 20010904//EN"
 "http://www.w3.org/TR/2001/REC-SVG-20010904/DTD/svg10.dtd">
<svg version="1.0" xmlns="http://www.w3.org/2000/svg"
 width="45.000000pt" height="45.000000pt" viewBox="0 0 45.000000 45.000000"
 preserveAspectRatio="xMidYMid meet">

<g transform="translate(0.000000,45.000000) scale(0.100000,-0.100000)"
fill="#655da7" stroke="none">
<path d="M95 440 c-3 -5 0 -13 7 -15 25 -10 253 -1 251 10 -4 14 -249 19 -258
5z"/>
<path d="M35 380 c-3 -6 0 -12 7 -15 25 -10 368 0 368 10 0 14 -366 19 -375 5z"/>
<path d="M4 317 c-2 -7 -3 -80 -2 -162 l3 -150 220 0 220 0 0 160 0 160 -218
3 c-172 2 -219 0 -223 -11z m327 -73 c-34 -31 -72 -65 -86 -76 -25 -19 -25
-19 -50 0 -14 11 -52 45 -86 76 l-60 56 171 0 171 0 -60 -56z m89 -79 l0 -135
-195 0 -195 0 0 126 0 126 60 -54 c132 -116 126 -113 152 -95 13 9 57 49 98
90 41 41 76 75 78 75 1 1 2 -59 2 -133z"/>
</g>
</svg>
