<?xml version="1.0" standalone="no"?>
<!DOCTYPE svg PUBLIC "-//W3C//DTD SVG 20010904//EN"
 "http://www.w3.org/TR/2001/REC-SVG-20010904/DTD/svg10.dtd">
<svg version="1.0" xmlns="http://www.w3.org/2000/svg"
 width="51.000000pt" height="54.000000pt" viewBox="0 0 51.000000 54.000000"
 preserveAspectRatio="xMidYMid meet">

<g transform="translate(0.000000,54.000000) scale(0.100000,-0.100000)"
fill="#655da7" stroke="none">
<path d="M5 528 c-3 -8 -4 -128 -3 -268 l3 -255 173 -3 173 -2 79 72 80 73 -3
195 -2 195 -248 3 c-194 2 -249 0 -252 -10z m465 -188 l0 -160 -70 0 -69 0 -3
-67 -3 -68 -142 -3 -143 -3 0 231 0 230 215 0 215 0 0 -160z m-40 -203 c0 -2
-13 -16 -30 -32 l-30 -29 0 32 c0 29 3 32 30 32 17 0 30 -1 30 -3z"/>
<path d="M150 426 c0 -20 23 -26 100 -26 44 0 71 5 79 13 18 22 2 27 -91 27
-69 0 -88 -3 -88 -14z"/>
<path d="M114 339 c-14 -23 18 -30 142 -27 113 3 129 5 132 21 3 15 -8 17
-132 17 -86 0 -137 -4 -142 -11z"/>
<path d="M110 255 c0 -22 32 -26 160 -23 100 3 115 5 118 21 3 15 -9 17 -137
17 -118 0 -141 -2 -141 -15z"/>
<path d="M110 175 c0 -12 18 -15 105 -15 87 0 105 3 105 15 0 12 -18 15 -105
15 -87 0 -105 -3 -105 -15z"/>
</g>
</svg>
