<?xml version="1.0" standalone="no"?>
<!DOCTYPE svg PUBLIC "-//W3C//DTD SVG 20010904//EN"
 "http://www.w3.org/TR/2001/REC-SVG-20010904/DTD/svg10.dtd">
<svg version="1.0" xmlns="http://www.w3.org/2000/svg"
 width="75.000000pt" height="54.000000pt" viewBox="0 0 75.000000 54.000000"
 preserveAspectRatio="xMidYMid meet">

<g transform="translate(0.000000,54.000000) scale(0.100000,-0.100000)"
fill="#007AC3" stroke="none">
<path d="M303 458 l-183 -71 0 -117 0 -117 188 -72 c103 -39 190 -71 195 -71
4 0 7 117 7 260 0 202 -3 260 -12 259 -7 0 -95 -32 -195 -71z m175 -302 l-3
-114 -160 62 -160 61 0 105 0 105 160 61 160 62 3 -114 c1 -63 1 -165 0 -228z"/>
<path d="M605 410 c-27 -27 -46 -53 -42 -57 8 -7 107 85 107 99 0 17 -18 6
-65 -42z"/>
<path d="M0 270 l0 -120 45 0 45 0 0 120 0 120 -45 0 -45 0 0 -120z m60 0 c0
-73 -3 -90 -15 -90 -12 0 -15 17 -15 90 0 73 3 90 15 90 12 0 15 -17 15 -90z"/>
<path d="M600 255 c0 -12 15 -15 75 -15 60 0 75 3 75 15 0 12 -15 15 -75 15
-60 0 -75 -3 -75 -15z"/>
<path d="M560 152 c0 -14 99 -106 107 -99 4 4 -15 30 -42 57 -47 48 -65 59
-65 42z"/>
</g>
</svg>
