<?xml version="1.0" standalone="no"?>
<!DOCTYPE svg PUBLIC "-//W3C//DTD SVG 20010904//EN"
 "http://www.w3.org/TR/2001/REC-SVG-20010904/DTD/svg10.dtd">
<svg version="1.0" xmlns="http://www.w3.org/2000/svg"
 width="48.000000pt" height="72.000000pt" viewBox="0 0 48.000000 72.000000"
 preserveAspectRatio="xMidYMid meet">

<g transform="translate(0.000000,72.000000) scale(0.100000,-0.100000)"
fill="#655da7" stroke="none">
<path d="M174 701 c-49 -23 -81 -61 -90 -110 -4 -20 -14 -42 -23 -48 -15 -12
-14 -14 2 -27 14 -11 17 -29 17 -106 0 -128 31 -185 113 -205 18 -5 27 -14 27
-27 0 -23 -23 -19 -85 17 -59 34 -87 91 -92 184 -5 93 -8 102 -28 95 -18 -7
-21 -111 -4 -179 19 -76 96 -148 174 -165 27 -5 30 -10 33 -48 l3 -42 -71 0
c-63 0 -71 -2 -68 -17 3 -16 19 -18 158 -18 139 0 155 2 158 18 3 15 -5 17
-68 17 l-71 0 3 42 c3 38 6 43 33 48 78 17 155 89 174 165 17 68 14 172 -4
179 -20 7 -23 -2 -28 -95 -6 -117 -54 -183 -154 -214 -18 -5 -23 -2 -23 13 0
13 9 22 27 27 82 20 113 77 113 205 0 77 3 95 18 106 15 13 16 15 1 27 -9 6
-19 28 -23 48 -9 49 -41 87 -90 110 -52 23 -80 23 -132 0z m153 -65 c19 -21
33 -46 33 -61 l0 -25 -120 0 -120 0 0 24 c0 28 43 83 74 97 42 18 99 3 133
-35z m31 -232 c-3 -105 -3 -106 -36 -135 -46 -42 -118 -42 -164 0 -33 29 -33
30 -36 135 l-4 106 122 0 122 0 -4 -106z"/>
</g>
</svg>
