<?xml version="1.0" standalone="no"?>
<!DOCTYPE svg PUBLIC "-//W3C//DTD SVG 20010904//EN"
 "http://www.w3.org/TR/2001/REC-SVG-20010904/DTD/svg10.dtd">
<svg version="1.0" xmlns="http://www.w3.org/2000/svg"
 width="48.000000pt" height="39.000000pt" viewBox="0 0 48.000000 39.000000"
 preserveAspectRatio="xMidYMid meet">

<g transform="translate(0.000000,39.000000) scale(0.100000,-0.100000)"
fill="#007AC3" stroke="none">
<path d="M4 377 c-2 -7 -3 -94 -2 -192 l3 -180 235 0 235 0 3 153 3 152 -100
0 -100 0 -23 40 -23 40 -113 0 c-82 0 -114 -3 -118 -13z m239 -52 l17 -35 95
0 95 0 0 -130 0 -130 -210 0 -210 0 0 165 0 165 98 0 98 0 17 -35z"/>
</g>
</svg>
