<?xml version="1.0" standalone="no"?>
<!DOCTYPE svg PUBLIC "-//W3C//DTD SVG 20010904//EN"
 "http://www.w3.org/TR/2001/REC-SVG-20010904/DTD/svg10.dtd">
<svg version="1.0" xmlns="http://www.w3.org/2000/svg"
 width="63.000000pt" height="60.000000pt" viewBox="0 0 63.000000 60.000000"
 preserveAspectRatio="xMidYMid meet">

<g transform="translate(0.000000,60.000000) scale(0.100000,-0.100000)"
fill="#007AC3" stroke="none">
<path d="M165 588 c-2 -7 -6 -29 -7 -48 l-3 -35 -56 -3 c-92 -5 -93 -8 -97
-242 l-3 -198 25 -28 24 -29 267 0 267 0 24 29 25 28 -3 198 c-4 234 -5 237
-97 242 l-56 3 -3 40 c-2 22 -7 44 -12 49 -17 17 -40 -15 -40 -55 l0 -39 -105
0 -105 0 0 38 c0 48 -33 85 -45 50z m410 -333 l0 -200 -260 0 -260 0 -3 190
c-1 104 0 195 3 202 3 11 58 13 262 11 l258 -3 0 -200z"/>
<path d="M157 373 c-15 -14 -5 -18 32 -15 32 3 41 0 50 -17 9 -17 8 -24 -9
-41 -11 -11 -27 -20 -35 -20 -8 0 -15 -4 -15 -10 0 -5 9 -10 19 -10 37 0 51
-12 51 -41 0 -37 -38 -55 -82 -40 -22 8 -28 7 -28 -4 0 -17 51 -29 82 -20 57
18 79 79 38 108 -18 13 -19 16 -5 27 18 15 20 61 3 78 -13 13 -90 17 -101 5z"/>
<path d="M331 354 c-24 -30 -29 -116 -10 -158 14 -31 57 -49 93 -40 36 9 56
51 56 117 0 73 -26 107 -80 107 -30 0 -43 -6 -59 -26z m99 -15 c6 -10 10 -44
10 -75 0 -84 -36 -118 -80 -74 -15 15 -20 33 -20 78 0 58 12 86 40 94 21 7 39
-1 50 -23z"/>
</g>
</svg>
