<?xml version="1.0" standalone="no"?>
<!DOCTYPE svg PUBLIC "-//W3C//DTD SVG 20010904//EN"
 "http://www.w3.org/TR/2001/REC-SVG-20010904/DTD/svg10.dtd">
<svg version="1.0" xmlns="http://www.w3.org/2000/svg"
 width="57.000000pt" height="57.000000pt" viewBox="0 0 57.000000 57.000000"
 preserveAspectRatio="xMidYMid meet">

<g transform="translate(0.000000,57.000000) scale(0.100000,-0.100000)"
fill="#007AC3" stroke="none">
<path d="M225 561 c-87 -24 -159 -82 -196 -159 -31 -65 -31 -169 0 -234 27
-55 93 -120 148 -144 51 -22 165 -22 216 0 55 24 121 89 148 144 31 65 31 169
0 234 -27 55 -94 121 -147 143 -46 19 -129 27 -169 16z m177 -68 c83 -45 137
-149 124 -237 -4 -23 -20 -65 -36 -93 -50 -88 -165 -139 -256 -114 -160 43
-236 210 -159 350 67 121 205 160 327 94z"/>
<path d="M255 397 c-4 -8 -5 -45 -3 -83 l3 -69 80 0 c64 0 80 3 80 15 0 11
-15 16 -62 18 l-62 3 -3 61 c-3 59 -21 88 -33 55z"/>
</g>
</svg>
