<?xml version="1.0" standalone="no"?>
<!DOCTYPE svg PUBLIC "-//W3C//DTD SVG 20010904//EN"
 "http://www.w3.org/TR/2001/REC-SVG-20010904/DTD/svg10.dtd">
<svg version="1.0" xmlns="http://www.w3.org/2000/svg"
 width="96.000000pt" height="91.000000pt" viewBox="0 0 96.000000 91.000000"
 preserveAspectRatio="xMidYMid meet">

<g transform="translate(0.000000,91.000000) scale(0.100000,-0.100000)"
fill="#007AC3" stroke="none">
<path d="M246 884 c-3 -9 -6 -36 -6 -60 l0 -44 -114 0 c-95 0 -115 -3 -120
-16 -8 -20 -8 -718 0 -738 5 -14 57 -16 474 -16 417 0 469 2 474 16 8 20 8
718 0 738 -5 13 -25 16 -120 16 l-114 0 0 44 c0 57 -8 76 -30 76 -22 0 -30
-19 -30 -76 l0 -44 -180 0 -180 0 0 44 c0 57 -8 76 -30 76 -10 0 -21 -7 -24
-16z m654 -219 l0 -65 -420 0 -420 0 0 65 0 65 420 0 420 0 0 -65z m0 -360 l0
-245 -420 0 -420 0 0 245 0 245 420 0 420 0 0 -245z"/>
</g>
</svg>
