<?xml version="1.0" standalone="no"?>
<!DOCTYPE svg PUBLIC "-//W3C//DTD SVG 20010904//EN"
 "http://www.w3.org/TR/2001/REC-SVG-20010904/DTD/svg10.dtd">
<svg version="1.0" xmlns="http://www.w3.org/2000/svg"
 width="45.000000pt" height="33.000000pt" viewBox="0 0 45.000000 33.000000"
 preserveAspectRatio="xMidYMid meet">

<g transform="translate(0.000000,33.000000) scale(0.100000,-0.100000)"
fill="#007AC3" stroke="none">
<path d="M0 315 c0 -10 10 -15 30 -15 20 0 30 5 30 15 0 10 -10 15 -30 15 -20
0 -30 -5 -30 -15z"/>
<path d="M125 320 c-3 -5 0 -12 7 -15 25 -10 308 0 311 10 3 14 -309 19 -318
5z"/>
<path d="M0 165 c0 -10 10 -15 30 -15 20 0 30 5 30 15 0 10 -10 15 -30 15 -20
0 -30 -5 -30 -15z"/>
<path d="M125 170 c-3 -5 0 -12 7 -15 25 -10 308 0 311 10 3 14 -309 19 -318
5z"/>
<path d="M0 15 c0 -10 10 -15 30 -15 20 0 30 5 30 15 0 10 -10 15 -30 15 -20
0 -30 -5 -30 -15z"/>
<path d="M125 20 c-3 -5 0 -12 7 -15 25 -10 308 0 311 10 3 14 -309 19 -318 5z"/>
</g>
</svg>
