<?xml version="1.0" standalone="no"?>
<!DOCTYPE svg PUBLIC "-//W3C//DTD SVG 20010904//EN"
 "http://www.w3.org/TR/2001/REC-SVG-20010904/DTD/svg10.dtd">
<svg version="1.0" xmlns="http://www.w3.org/2000/svg"
 width="51.000000pt" height="49.000000pt" viewBox="0 0 51.000000 49.000000"
 preserveAspectRatio="xMidYMid meet">

<g transform="translate(0.000000,49.000000) scale(0.100000,-0.100000)"
fill="#007AC3" stroke="none">
<path d="M217 400 c-21 -39 -39 -70 -41 -70 -8 0 -124 -22 -140 -27 -16 -4
-14 -9 16 -42 84 -91 80 -80 68 -161 -6 -40 -8 -75 -6 -78 3 -2 37 11 76 29
l71 32 69 -33 c38 -19 72 -31 75 -28 3 3 1 38 -5 78 -11 81 -14 74 64 157 44
48 52 40 -66 63 l-58 11 -37 70 c-21 38 -40 69 -43 69 -3 0 -22 -32 -43 -70z
m72 -26 c30 -57 51 -70 120 -79 l53 -7 -47 -48 -48 -49 7 -66 c7 -66 7 -67
-16 -60 -13 4 -35 14 -50 21 -15 8 -36 14 -48 14 -12 0 -33 -6 -48 -14 -15 -7
-37 -17 -50 -21 -22 -7 -23 -6 -16 58 l7 65 -47 50 -47 50 47 7 c75 11 90 21
121 74 15 28 30 51 33 51 3 0 16 -21 29 -46z"/>
</g>
</svg>
