<?xml version="1.0" standalone="no"?>
<!DOCTYPE svg PUBLIC "-//W3C//DTD SVG 20010904//EN"
 "http://www.w3.org/TR/2001/REC-SVG-20010904/DTD/svg10.dtd">
<svg version="1.0" xmlns="http://www.w3.org/2000/svg"
 width="57.000000pt" height="54.000000pt" viewBox="0 0 57.000000 54.000000"
 preserveAspectRatio="xMidYMid meet">

<g transform="translate(0.000000,54.000000) scale(0.100000,-0.100000)"
fill="#007AC3" stroke="none">
<path d="M193 530 c-90 -21 -163 -95 -184 -186 -23 -98 31 -205 127 -254 61
-31 169 -34 222 -6 l34 17 53 -50 c30 -28 61 -51 69 -51 18 0 56 35 56 51 0 5
-23 35 -52 65 l-51 55 16 35 c24 48 22 144 -2 193 -52 101 -176 158 -288 131z
m135 -65 c75 -32 112 -86 112 -165 0 -79 -37 -133 -112 -165 -106 -44 -229 16
-258 125 -37 137 120 262 258 205z"/>
</g>
</svg>
